<svg xmlns="http://www.w3.org/2000/svg" baseProfile="tiny" version="1.2" viewBox="0 0 32 32"><circle cx="16" cy="16" r="15.5" stroke="#fff"/><circle cx="16" cy="16" r="12.5" stroke="#444"/><path d="M16 3.5c6.9 0 12.5 5.6 12.5 12.5" stroke="#999" stroke-linecap="round"/><path d="M12.16 21.46c-.57 0-1.09-.1-1.56-.31s-.84-.54-1.12-1.01c-.28-.46-.42-1.08-.42-1.85v-4.58c0-.77.14-1.39.42-1.85.28-.46.65-.8 1.12-1.01s1-.31 1.59-.31c.49 0 .93.07 1.31.21.38.14.7.33.96.58.26.25.45.52.59.81.13.3.2.61.2.93 0 .16-.04.27-.13.35-.08.07-.2.11-.33.11s-.26-.03-.36-.1c-.1-.06-.16-.17-.16-.32 0-.35-.09-.64-.28-.89-.19-.25-.44-.44-.76-.58-.32-.14-.67-.21-1.06-.21-.66 0-1.18.18-1.55.55-.37.37-.56.94-.56 1.72v2.25c.25-.35.57-.6.96-.75s.82-.23 1.28-.23c.54 0 1.04.09 1.48.27.44.18.8.48 1.07.91.27.43.4 1.02.4 1.77v.36c0 .77-.14 1.39-.42 1.85-.28.46-.64.8-1.1 1.01-.46.21-.98.31-1.56.31Zm0-.88c.66 0 1.17-.18 1.54-.55.37-.37.55-.93.55-1.7v-.36c0-.78-.18-1.33-.55-1.66-.37-.33-.88-.49-1.54-.49s-1.15.15-1.53.46-.57.82-.57 1.55v.49c0 .77.19 1.34.56 1.7.37.37.89.55 1.55.55ZM19.84 21.46c-.57 0-1.09-.1-1.56-.31s-.83-.54-1.11-1.01c-.28-.46-.41-1.08-.41-1.85v-4.58c0-.77.14-1.39.41-1.85.28-.46.65-.8 1.11-1.01s.98-.31 1.56-.31 1.11.1 1.57.31.83.54 1.11 1.01c.28.46.41 1.08.41 1.85v4.58c0 .77-.14 1.39-.41 1.85-.28.46-.65.8-1.11 1.01s-.99.31-1.57.31Zm0-.91c.66 0 1.18-.18 1.55-.55s.56-.94.56-1.72V13.7c0-.78-.19-1.35-.56-1.72-.38-.37-.89-.55-1.54-.55s-1.18.18-1.54.55c-.37.37-.55.94-.55 1.72v4.58c0 .78.19 1.35.56 1.72s.88.55 1.53.55Zm.01-4c-.16 0-.29-.05-.39-.16s-.16-.24-.16-.38c0-.16.05-.29.16-.39s.24-.15.39-.15.29.05.38.15.15.23.15.39a.529.529 0 0 1-.53.54Z" fill="#999"/></svg>