<svg xmlns="http://www.w3.org/2000/svg" baseProfile="tiny" version="1.2" viewBox="0 0 32 32"><circle cx="16" cy="16" r="15.5" stroke="#aaa" stroke-miterlimit="10"/><circle cx="16" cy="16" r="12.5" stroke="#444" stroke-miterlimit="10" stroke-width="1.5"/><path d="M16 3.5c6.9 0 12.5 5.6 12.5 12.5" stroke="#999" stroke-linecap="round" stroke-miterlimit="10" stroke-width="1.5"/><path d="M11.8 21.39c-.83 0-1.53-.2-2.11-.6-.58-.4-1.02-.99-1.32-1.75s-.45-1.69-.45-2.77c0-.91.09-1.72.28-2.42.19-.7.47-1.29.84-1.77s.82-.85 1.34-1.1c.53-.25 1.12-.37 1.79-.37a4 4 0 0 1 1.41.27c.48.18.91.43 1.27.76.11.08.18.18.2.29.03.11.02.22 0 .33-.03.1-.08.19-.16.26-.07.07-.17.11-.28.11s-.22-.04-.34-.13c-.34-.29-.69-.49-1.04-.62s-.72-.19-1.09-.19c-.65 0-1.2.16-1.65.48-.45.32-.8.8-1.03 1.44-.23.64-.35 1.44-.35 2.41v1.39h-.13c.06-.57.23-1.06.5-1.47.27-.41.62-.73 1.05-.95.43-.22.91-.33 1.45-.33.62 0 1.16.14 1.64.42.48.28.85.67 1.12 1.17s.4 1.08.4 1.72-.14 1.24-.42 1.76c-.28.52-.67.92-1.18 1.22-.51.29-1.09.44-1.75.44Zm-.07-1.04c.44 0 .83-.1 1.16-.29.34-.19.6-.47.79-.82.19-.35.28-.76.28-1.22s-.09-.86-.28-1.21c-.19-.35-.45-.62-.79-.82-.34-.2-.73-.3-1.16-.3s-.83.1-1.16.3c-.34.2-.6.47-.79.82-.19.35-.28.75-.28 1.21s.09.86.28 1.22.45.63.79.82c.34.19.73.29 1.16.29ZM20.39 21.39c-1.2 0-2.12-.46-2.74-1.39-.63-.93-.94-2.26-.94-4.01 0-1.17.14-2.16.42-2.96.28-.8.69-1.4 1.25-1.81.55-.41 1.23-.61 2.02-.61 1.21 0 2.13.45 2.75 1.36.62.91.93 2.25.93 4.01 0 1.17-.14 2.16-.42 2.97-.28.81-.69 1.42-1.24 1.83-.55.41-1.22.62-2.03.62Zm0-1.06c.84 0 1.45-.36 1.86-1.07.4-.71.6-1.81.6-3.29s-.2-2.58-.6-3.27-1.02-1.04-1.86-1.04-1.44.35-1.85 1.04c-.41.7-.61 1.79-.61 3.27s.2 2.58.61 3.29 1.02 1.07 1.85 1.07Z" fill="#999"/></svg>